HIERARCHY
ROOT Hips
{
	OFFSET 0.00000 0.00000 0.00000
	CHANNELS 6 Xposition Yposition Zposition Zrotation Yrotation Xrotation 
	JOINT LHipJoint
	{
		OFFSET 0 0 0
		CHANNELS 3 Zrotation Yrotation Xrotation
		JOINT LeftUpLeg
		{
			OFFSET 1.54859 -1.61379 0.86856
			CHANNELS 3 Zrotation Yrotation Xrotation
			JOINT LeftLeg
			{
				OFFSET 2.25087 -6.18423 0.00000
				CHANNELS 3 Zrotation Yrotation Xrotation
				JOINT LeftFoot
				{
					OFFSET 2.40328 -6.60297 0.00000
					CHANNELS 3 Zrotation Yrotation Xrotation
					JOINT LeftToeBase
					{
						OFFSET 0.17435 -0.47901 2.02453
						CHANNELS 3 Zrotation Yrotation Xrotation
						End Site
						{
							OFFSET 0.00000 -0.00000 1.04844
						}
					}
				}
			}
		}
	}
	JOINT RHipJoint
	{
		OFFSET 0 0 0
		CHANNELS 3 Zrotation Yrotation Xrotation
		JOINT RightUpLeg
		{
			OFFSET -1.54669 -1.61379 0.86856
			CHANNELS 3 Zrotation Yrotation Xrotation
			JOINT RightLeg
			{
				OFFSET -2.28132 -6.26789 0.00000
				CHANNELS 3 Zrotation Yrotation Xrotation
				JOINT RightFoot
				{
					OFFSET -2.51636 -6.91365 0.00000
					CHANNELS 3 Zrotation Yrotation Xrotation
					JOINT RightToeBase
					{
						OFFSET -0.15124 -0.41552 2.21090
						CHANNELS 3 Zrotation Yrotation Xrotation
						End Site
						{
							OFFSET -0.00000 -0.00000 1.13399
						}
					}
				}
			}
		}
	}
	JOINT LowerBack
	{
		OFFSET 0 0 0
		CHANNELS 3 Zrotation Yrotation Xrotation
		JOINT Spine
		{
			OFFSET -0.04287 2.26161 -0.25690
			CHANNELS 3 Zrotation Yrotation Xrotation
			JOINT Spine1
			{
				OFFSET 0.02248 2.28395 -0.10140
				CHANNELS 3 Zrotation Yrotation Xrotation
				JOINT Neck
				{
					OFFSET 0 0 0
					CHANNELS 3 Zrotation Yrotation Xrotation
					JOINT Neck1
					{
						OFFSET -0.11644 1.38496 0.11345
						CHANNELS 3 Zrotation Yrotation Xrotation
						JOINT Head
						{
							OFFSET 0.29383 1.36600 0.06642
							CHANNELS 3 Zrotation Yrotation Xrotation
							End Site
							{
								OFFSET 0.11075 1.41395 -0.00294
							}
						}
					}
				}
				JOINT LeftShoulder
				{
					OFFSET 0 0 0
					CHANNELS 3 Zrotation Yrotation Xrotation
					JOINT LeftArm
					{
						OFFSET 3.51628 0.59542 -0.30346
						CHANNELS 3 Zrotation Yrotation Xrotation
						JOINT LeftForeArm
						{
							OFFSET 4.76405 -0.00000 0.00000
							CHANNELS 3 Zrotation Yrotation Xrotation
							JOINT LeftHand
							{
								OFFSET 3.13759 -0.00000 -0.00000
								CHANNELS 3 Zrotation Yrotation Xrotation
								JOINT LeftFingerBase
								{
									OFFSET 0 0 0
									CHANNELS 3 Zrotation Yrotation Xrotation
									JOINT LeftHandIndex1
									{
										OFFSET 0.73226 -0.00000 -0.00000
										CHANNELS 3 Zrotation Yrotation Xrotation
										End Site
										{
											OFFSET 0.59037 -0.00000 -0.00000
										}
									}
								}
								JOINT LThumb
								{
									OFFSET 0 0 0
									CHANNELS 3 Zrotation Yrotation Xrotation
									End Site
									{
										OFFSET 0.59938 -0.00000 0.59938
									}
								}
							}
						}
					}
				}
				JOINT RightShoulder
				{
					OFFSET 0 0 0
					CHANNELS 3 Zrotation Yrotation Xrotation
					JOINT RightArm
					{
						OFFSET -3.30990 0.84213 -0.36430
						CHANNELS 3 Zrotation Yrotation Xrotation
						JOINT RightForeArm
						{
							OFFSET -5.10161 -0.00000 -0.00000
							CHANNELS 3 Zrotation Yrotation Xrotation
							JOINT RightHand
							{
								OFFSET -3.23267 -0.00000 -0.00000
								CHANNELS 3 Zrotation Yrotation Xrotation
								JOINT RightFingerBase
								{
									OFFSET 0 0 0
									CHANNELS 3 Zrotation Yrotation Xrotation
									JOINT RightHandIndex1
									{
										OFFSET -0.70200 -0.00000 -0.00000
										CHANNELS 3 Zrotation Yrotation Xrotation
										End Site
										{
											OFFSET -0.56597 -0.00000 -0.00000
										}
									}
								}
								JOINT RThumb
								{
									OFFSET 0 0 0
									CHANNELS 3 Zrotation Yrotation Xrotation
									End Site
									{
										OFFSET -0.57461 -0.00000 0.57461
									}
								}
							}
						}
					}
				}
			}
		}
	}
}
MOTION
Frames: 15
Frame Time: .0083333
-39.2074 13.978 1.9037 0 0 0 0 0 0 -21 0 0 0 0 0 0 0 0 0 0 0 0 0 0 21 0 0 0 0 0 0 0 0 0 0 0 0 0 0 0 0 0 0 0 0 0 0 -16 0 0 21 0 0 11 0 0 0 -8 0 0 0 0 0 0 0 0 0 0 0 0 0 0 0 0 0 0 0 0 8 0 0 0 0 0 0 0 0 0 0 0 0 0 0 0 0 0
-39.2074 13.9780 1.9037 -0.6825 86.2635 -3.0017 0.0000 0.0000 0.0000 -5.5717 -1.7558 -39.1028 11.6408 18.2347 64.8458 0.3874 -12.7690 -13.3485 3.3245 -11.2027 -32.9664 0.0000 0.0000 0.0000 13.8057 -4.0627 -30.1974 -20.4272 -19.9956 91.2490 -0.3956 -2.7053 -13.1833 -3.8537 11.9631 -35.6015 -6.8156 5.3474 21.7670 -1.4078 6.9255 13.1516 0.9477 3.6400 1.8348 -8.0235 -9.9187 -7.0459 21.3484 -8.9694 -23.1870 8.1934 -4.4822 -4.0832 0.0000 -0.0000 0.0000 -83.9054 -3.0618 33.7868 26.9167 -38.0997 -9.4477 -0.0000 0.0000 -23.3008 23.4560 22.4768 9.4186 -7.1250 0.0000 -0.0000 -5.8170 54.1621 -1.3133 0.0000 -0.0000 0.0000 83.6336 22.9381 0.4700 -33.1041 43.4099 -13.4936 0.0000 -0.0000 -0.8183 -37.4599 36.1788 -24.3374 7.1250 -0.0000 -0.0000 -1.9852 12.6526 -2.3731
-38.8922 14.0428 1.9109 0.8749 86.1170 -1.2304 0.0000 0.0000 0.0000 -5.9039 -1.3786 -38.0466 11.7727 18.2929 65.2666 0.4141 -12.6932 -13.5807 2.7751 -10.3217 -30.0249 0.0000 0.0000 0.0000 14.0313 -3.6883 -32.3166 -20.2998 -19.9978 90.8765 -0.5248 -0.6330 -13.9284 -2.7119 10.2135 -29.6708 -7.5496 5.2290 22.8323 -1.2291 6.3333 11.9995 1.4987 3.3099 -0.0172 -8.8559 -9.4011 -6.9140 21.3685 -8.5257 -21.7233 8.2850 -4.2149 -3.6757 0.0000 -0.0000 0.0000 -82.5438 -1.0711 34.5619 29.3699 -40.3472 -10.9994 -0.0000 0.0000 -23.6270 24.7851 26.1365 11.4975 -7.1250 0.0000 -0.0000 -5.7932 58.2761 -1.8855 0.0000 -0.0000 0.0000 83.5769 20.2419 1.3671 -36.2203 45.6641 -15.6799 0.0000 -0.0000 -0.4699 -38.9709 37.8840 -26.4156 7.1250 -0.0000 -0.0000 -2.2592 15.0107 -2.7690
-38.5793 14.1232 1.9195 3.1981 86.0567 1.2144 0.0000 0.0000 0.0000 -6.3106 -1.0833 -37.0730 11.9773 18.3810 65.9169 0.4098 -11.9629 -13.2320 2.5456 -9.9203 -28.7189 0.0000 0.0000 0.0000 14.1948 -3.5338 -34.1977 -20.0442 -20.0000 90.1292 -0.5717 -0.1865 -14.3550 -2.8114 10.3833 -30.2270 -7.8021 4.9562 23.7048 -1.4022 5.7040 11.1403 1.4870 3.0085 -1.3481 -8.6400 -8.9251 -6.5316 20.9024 -8.1168 -20.8971 8.0877 -4.0351 -3.6019 0.0000 -0.0000 0.0000 -80.4492 0.8066 35.7645 32.0185 -42.5619 -12.7533 -0.0000 0.0000 -23.5631 26.4182 27.2693 12.8232 -7.1250 0.0000 -0.0000 -4.4477 59.8482 -1.6138 0.0000 -0.0000 0.0000 84.0298 17.9479 1.5219 -39.6551 47.8642 -18.1830 0.0000 0.0000 1.8430 -39.9198 38.1796 -27.3479 7.1250 -0.0000 -0.0000 -2.6444 15.6938 -3.2640
-38.2676 14.2179 1.9371 4.8959 86.0487 3.0723 0.0000 0.0000 0.0000 -6.5695 -0.7815 -36.3478 12.2394 18.4900 66.7456 0.4136 -10.8597 -12.8412 3.0179 -10.7239 -31.3544 0.0000 0.0000 0.0000 14.3479 -3.2232 -35.8640 -19.7279 -19.9982 89.2045 -0.6183 0.1994 -14.7916 -2.9901 10.6790 -31.2046 -8.0826 4.6225 23.5359 -1.3924 5.2104 11.0390 1.7893 2.7480 -1.3571 -8.8401 -8.4638 -6.3212 20.7443 -7.5437 -20.7066 8.0960 -3.7462 -3.6664 0.0000 0.0000 0.0000 -78.7004 1.6381 36.8839 34.4391 -44.4074 -14.4194 -0.0000 0.0000 -23.2669 28.1743 27.7376 13.9979 -7.1250 0.0000 -0.0000 -2.6068 60.7784 -1.0028 0.0000 0.0000 0.0000 83.9760 16.7746 1.2871 -43.0324 49.7673 -20.7254 0.0000 0.0000 4.5207 -40.6935 37.9035 -27.8470 7.1250 -0.0000 -0.0000 -3.1180 15.7211 -3.8510
-37.9575 14.3029 1.9605 7.2946 85.9676 5.6739 0.0000 0.0000 0.0000 -6.7639 -0.4945 -35.8645 12.5789 18.6248 67.8123 0.3564 -9.8840 -11.8448 3.2435 -11.0791 -32.5473 0.0000 0.0000 0.0000 14.3152 -2.7315 -37.4976 -19.3749 -19.9906 88.1720 -0.6558 0.4093 -15.1674 -3.2045 11.0190 -32.3440 -8.7485 4.3733 23.3120 -1.1837 4.7593 10.9656 2.5123 2.4876 -1.3403 -9.0845 -7.9268 -6.5575 20.3185 -6.9036 -20.2796 7.9941 -3.3808 -3.6130 0.0000 -0.0000 0.0000 -77.4407 2.0984 37.5518 36.3618 -45.7604 -15.7812 -0.0000 0.0000 -22.3402 32.6211 29.9270 17.7091 -7.1250 0.0000 -0.0000 2.0298 64.3202 0.9499 0.0000 -0.0000 0.0000 83.4856 15.7995 1.1461 -46.1671 51.3276 -23.1464 0.0000 0.0000 6.1543 -41.1311 38.0065 -28.2688 7.1250 -0.0000 -0.0000 -3.3041 16.0092 -4.0929
-37.6520 14.3691 1.9856 9.7753 85.8910 8.1997 0.0000 0.0000 0.0000 -6.8989 -0.2300 -35.3789 12.9936 18.7799 69.1058 0.2452 -9.0282 -10.1349 3.0664 -10.8018 -31.6144 0.0000 0.0000 0.0000 14.0926 -2.2286 -38.9496 -19.0088 -19.9764 87.1007 -0.6978 0.4058 -15.6526 -3.2507 11.0902 -32.5848 -9.2619 4.0951 23.1709 -1.1588 4.3285 11.0752 2.9499 2.2475 -1.1240 -8.7740 -7.3828 -7.3739 19.7095 -6.2589 -19.6518 7.7053 -3.0038 -3.4402 0.0000 -0.0000 0.0000 -75.8489 2.1776 38.0176 38.1916 -46.9612 -17.1055 -0.0000 0.0000 -21.1782 33.6314 27.3396 16.9877 -7.1250 0.0000 -0.0000 4.1977 61.7698 1.7145 0.0000 -0.0000 0.0000 83.2931 15.3390 0.8541 -48.9049 52.5442 -25.3022 0.0000 0.0000 6.3778 -40.7913 38.8897 -28.4469 7.1250 -0.0000 -0.0000 -2.8517 16.7839 -3.5573
-37.3420 14.4761 2.0207 10.3851 85.8980 8.7716 0.0000 0.0000 0.0000 -6.8157 0.6655 -34.8698 13.3534 18.9061 70.2197 0.0839 -8.4778 -7.4706 2.3166 -9.4965 -27.3613 0.0000 0.0000 0.0000 13.9960 -1.7231 -39.8545 -18.4674 -19.9436 85.5148 -0.7356 0.2564 -16.1238 -3.2072 11.0231 -32.3578 -9.4970 3.8008 23.3065 -1.2152 3.8705 10.9822 3.1264 2.0171 -1.2432 -8.3569 -6.7870 -7.8523 19.1488 -5.5945 -18.8948 7.4243 -2.6476 -3.2827 -0.0000 0.0000 0.0000 -74.0240 2.6021 38.8765 40.0098 -48.0757 -18.4465 -0.0000 0.0000 -21.0362 34.9706 23.9017 15.8223 -7.1250 0.0000 -0.0000 6.5448 58.2656 2.1298 -0.0000 0.0000 0.0000 83.3001 14.6006 0.5390 -51.2358 53.4819 -27.1642 0.0000 0.0000 5.9667 -40.5278 39.6936 -28.6355 7.1250 -0.0000 -0.0000 -2.4597 17.5012 -3.0879
-37.0294 14.5653 2.0602 7.4962 85.8010 5.8494 0.0000 0.0000 0.0000 -6.4422 0.8840 -34.0495 13.6950 19.0189 71.2709 -0.0012 -7.1739 -4.9997 0.7728 -5.6132 -15.6661 0.0000 0.0000 0.0000 13.9609 -0.8736 -40.5927 -17.8997 -19.8939 83.8487 -0.7316 0.0396 -16.1534 -3.2114 11.0297 -32.3800 -9.9280 3.6207 23.5470 -0.8975 3.4693 10.6563 3.7926 1.8055 -1.7057 -8.5000 -6.1264 -7.6226 18.7488 -4.8224 -18.4174 7.3309 -2.2571 -3.3033 0.0000 0.0000 0.0000 -72.8406 3.0066 40.0846 41.1367 -48.7291 -19.2893 -0.0000 0.0000 -21.7463 36.4676 22.4060 15.7333 -7.1250 0.0000 -0.0000 8.4795 56.9218 2.4895 0.0000 0.0000 0.0000 82.6587 13.4358 0.5097 -53.0792 54.1644 -28.6523 0.0000 0.0000 5.7213 -40.4051 39.8226 -28.5962 7.1250 -0.0000 -0.0000 -2.3574 17.5828 -2.9614
-36.7067 14.6789 2.1027 3.0238 85.7101 1.2411 0.0000 0.0000 0.0000 -5.9906 1.4331 -33.5482 13.9806 19.1082 72.1454 -0.0067 -5.1926 -3.4167 0.5147 -4.5982 -12.7660 0.0000 0.0000 0.0000 13.9048 0.0056 -40.8312 -17.1896 -19.8096 81.7579 -0.6735 -0.4252 -15.6667 -3.4414 11.3774 -33.5637 -10.3886 3.4349 24.0192 -0.4086 3.0135 10.2039 4.6738 1.5779 -2.4122 -8.8396 -5.3994 -7.4577 18.3673 -3.9871 -17.7010 7.2661 -1.8209 -3.2430 -0.0000 -0.0000 0.0000 -72.1983 5.1392 40.9867 43.5356 -50.0306 -21.1104 -0.0000 0.0000 -22.3346 37.8450 22.2665 16.4041 -7.1250 0.0000 -0.0000 10.1162 57.0998 3.0199 -0.0000 -0.0000 0.0000 81.6547 12.0406 0.7457 -54.4370 54.6355 -29.7563 0.0000 0.0000 5.2775 -40.4513 39.2474 -28.3434 7.1250 -0.0000 -0.0000 -2.5680 17.0124 -3.2097
-36.3694 14.8019 2.1333 -0.1083 86.1974 -2.0277 0.0000 0.0000 0.0000 -5.7176 1.4147 -33.2955 14.2536 19.1892 72.9775 0.0006 -3.3346 -2.3647 0.3947 -4.0339 -11.1720 0.0000 0.0000 0.0000 13.6663 0.0562 -40.8785 -16.4087 -19.6879 79.4470 -0.5914 -1.6340 -15.2089 -4.2271 12.4567 -37.3673 -10.3611 2.9059 24.5040 -0.1768 2.2053 9.6427 5.1084 1.2079 -3.1615 -8.9424 -4.5771 -6.9146 18.0441 -3.0578 -16.9227 7.1827 -1.3757 -3.2444 -0.0000 -0.0000 0.0000 -71.3325 7.1528 42.0361 45.5623 -51.0410 -22.6752 -0.0000 0.0000 -23.5020 37.4972 29.9301 20.9475 -7.1250 0.0000 -0.0000 8.7910 65.7464 4.4192 -0.0000 -0.0000 0.0000 81.0017 10.5285 0.7711 -55.1195 54.8626 -30.3137 0.0000 0.0000 4.5624 -40.4108 38.2799 -27.8090 7.1250 -0.0000 -0.0000 -2.8579 15.9967 -3.5386
-36.0292 14.9436 2.1711 -3.3332 86.1040 -5.4683 0.0000 0.0000 0.0000 -5.5753 1.8408 -32.2520 14.4143 19.2349 73.4658 0.0227 -1.4020 -2.7017 0.2254 -3.0557 -8.4338 0.0000 0.0000 0.0000 13.4467 0.6543 -40.5319 -15.4828 -19.5036 76.6867 -0.4547 -3.2980 -14.3749 -5.0504 13.4403 -41.0398 -10.2624 2.6033 24.6927 -0.1090 1.7679 9.3266 5.2407 1.0092 -3.5405 -8.7507 -3.8964 -6.8956 17.6768 -2.2895 -16.1285 7.0156 -0.9918 -3.1383 0.0000 0.0000 0.0000 -70.3037 8.3874 43.3538 47.2647 -51.8309 -24.0064 -0.0000 0.0000 -25.0914 36.5099 33.6842 22.3202 -7.1250 0.0000 -0.0000 6.0893 69.5596 3.5840 0.0000 0.0000 0.0000 80.7596 9.5566 0.1017 -55.1968 54.8879 -30.3769 0.0000 0.0000 3.6807 -40.1259 37.2140 -27.0103 7.1250 -0.0000 -0.0000 -3.0462 14.7696 -3.7266
-35.6886 15.0446 2.1989 -7.4821 86.1990 -9.7307 0.0000 0.0000 0.0000 -5.2096 3.0123 -31.6039 14.5842 19.2817 73.9809 0.0326 0.3491 -3.5562 0.2637 -3.3035 -9.1249 0.0000 0.0000 0.0000 13.0689 1.0817 -40.4989 -14.6445 -19.2980 74.1635 -0.3132 -4.6586 -13.3250 -5.5251 13.9518 -43.0448 -10.4889 1.9767 23.5245 0.3563 1.1039 9.7151 6.0817 0.6011 -2.4268 -9.6587 -2.9013 -6.4820 17.4438 -0.9753 -15.9706 7.1174 -0.3102 -3.3378 -0.0000 0.0000 0.0000 -70.7309 8.6949 43.5419 48.3084 -52.2900 -24.8295 -0.0000 0.0000 -26.8702 36.1585 29.1924 19.6177 -7.1250 0.0000 -0.0000 7.0587 64.5310 3.3453 -0.0000 0.0000 0.0000 79.8127 9.8514 -0.2030 -54.9129 54.7945 -30.1448 0.0000 0.0000 1.4673 -39.4026 36.2964 -25.9332 7.1250 -0.0000 -0.0000 -2.9525 13.5167 -3.5649
-35.3454 15.1033 2.2141 -15.1921 86.4140 -17.5824 0.0000 0.0000 0.0000 -4.5270 3.4688 -30.7974 14.7348 19.3219 74.4366 0.0256 2.2753 -4.6971 0.4295 -4.2058 -11.6564 0.0000 0.0000 0.0000 12.6211 1.3517 -40.2034 -13.8631 -19.0720 71.7860 -0.2786 -4.8755 -12.9678 -5.1290 13.5276 -41.3770 -9.9692 1.2320 22.9188 0.5210 0.3264 9.8108 6.1612 0.1916 -1.8975 -10.1824 -1.8991 -7.2265 17.3547 0.2835 -14.6134 7.1513 0.3898 -2.9938 -0.0000 -0.0000 0.0000 -70.8292 8.9036 43.7783 48.7311 -52.4707 -25.1643 -0.0000 0.0000 -29.2525 34.3141 30.9019 19.3165 -7.1250 0.0000 -0.0000 3.9489 65.8686 1.9908 -0.0000 -0.0000 0.0000 79.6582 9.6984 -0.8052 -54.9478 54.8060 -30.1733 0.0000 -0.0000 -2.0500 -37.6240 35.4347 -24.0786 7.1250 -0.0000 -0.0000 -2.2772 11.9280 -2.7006
-35.0009 15.1492 2.2311 -23.0818 85.9770 -25.8632 0.0000 0.0000 0.0000 -3.4381 4.1850 -29.3803 14.7834 19.3346 74.5833 0.0227 2.8089 -5.1438 0.7055 -5.3684 -14.9623 0.0000 0.0000 0.0000 12.4217 2.0564 -39.6975 -13.1655 -18.8411 69.6386 -0.2567 -5.0926 -12.8054 -4.7671 13.1166 -39.8066 -9.5437 0.8760 22.6558 0.9047 -0.0017 9.9192 6.4156 0.0098 -1.6001 -10.4224 -1.1345 -8.3589 16.8742 1.1461 -12.9321 7.0085 0.9033 -2.4491 -0.0000 0.0000 0.0000 -71.3836 8.5489 44.2982 48.3945 -52.3271 -24.8977 -0.0000 0.0000 -31.5350 33.6274 33.1955 20.0083 -7.1250 0.0000 -0.0000 1.9118 68.1297 1.0622 -0.0000 0.0000 0.0000 79.4198 9.3031 -2.0027 -55.1198 54.8627 -30.3139 0.0000 -0.0000 -5.8592 -35.3582 34.0774 -21.6817 7.1250 -0.0000 -0.0000 -1.4379 9.6838 -1.6597
